<?xml version="1.0" encoding="UTF-8"?>
<svg width="229px" height="68px" viewBox="0 0 229 68" version="1.1" xmlns="http://www.w3.org/2000/svg" xmlns:xlink="http://www.w3.org/1999/xlink">
    <!-- Generator: Sketch 59.1 (86144) - https://sketch.com -->
    <title>Group 47</title>
    <desc>Created with Sketch.</desc>
    <defs>
        <polygon id="path-1" points="0 0.665902439 55.2790954 0.665902439 55.2790954 67.1707317 0 67.1707317"></polygon>
        <polygon id="path-3" points="0.444807609 0.386190244 12.1336812 0.386190244 12.1336812 13.6636049 0.444807609 13.6636049"></polygon>
    </defs>
    <g id="Page-1" stroke="none" stroke-width="1" fill="none" fill-rule="evenodd">
        <g id="home-page-desktop-HD" transform="translate(-12.000000, -10.000000)">
            <g id="Group-47" transform="translate(12.000000, 10.000000)">
                <g id="Group-46">
                    <g id="Group-45">
                        <g id="Group-3" transform="translate(0.000000, 0.163449)">
                            <mask id="mask-2" fill="white">
                                <use xlink:href="#path-1"></use>
                            </mask>
                            <g id="Clip-2"></g>
                            <path d="M48.6741159,56.1874049 C48.3297862,56.6211122 47.9721812,57.0423805 47.6037899,57.4512098 C46.8910688,55.9203805 46.0215326,54.4890634 45.0018188,53.1746732 C49.8755362,46.8390634 51.0056014,38.3622829 47.9655435,30.9710146 C49.4930399,30.4361366 50.9309275,29.636722 52.1041377,28.5379415 C56.1448261,37.5827707 54.8554565,48.4096976 48.6741159,56.1874049 L48.6741159,56.1874049 Z M45.5261957,59.5094537 C44.2982246,56.4925756 42.4081449,53.8463805 39.8750399,51.7798439 C40.2426014,51.2532585 40.5885906,50.7125756 40.9121775,50.1569659 C43.5631014,52.2815512 45.6058478,55.0032098 47.0030797,58.0955512 C46.5284855,58.5873073 46.034808,59.0575024 45.5261957,59.5094537 L45.5261957,59.5094537 Z M25.1534928,66.2572098 C24.2690217,66.1767707 23.3936775,66.050722 22.5282899,65.8823805 C23.3073877,63.194722 26.8212101,61.970722 29.0448333,60.7823805 C30.5408007,59.9821366 32.0044094,59.1097463 33.3950036,58.1353561 C35.5630362,59.6462829 37.0697899,61.8148195 37.6655217,64.3838927 C33.7476304,65.9677951 29.458029,66.644478 25.1534928,66.2572098 L25.1534928,66.2572098 Z M8.02910507,57.8467707 C9.07288043,55.7935024 10.36225,53.8745756 11.9544638,52.2027707 C13.6362862,50.4356 15.5968913,49.0830634 17.773221,47.9942341 C21.3351667,46.2137951 26.3258732,45.0279415 27.7446775,40.792039 C28.4184022,38.7785756 28.1512355,36.5229659 27.3538841,34.5741854 L29.3982899,34.5741854 C30.3176087,36.6614537 30.3010145,39.0447707 29.5310435,41.1793073 C28.702163,43.4772098 27.0120435,45.2045756 24.9452355,46.4476488 C22.9282101,47.6616976 20.6962899,48.4495024 18.5888261,49.4836 C16.5552065,50.4803805 14.7057826,51.8022341 13.1525652,53.4566244 C11.5653297,55.1466732 10.3274022,57.1203317 9.46699275,59.266478 C8.96999638,58.812039 8.49125362,58.3385268 8.02910507,57.8467707 L8.02910507,57.8467707 Z M5.57399275,24.2448195 C6.91563406,22.3142829 8.55265217,20.6574049 10.1946486,18.9880878 C11.8241993,17.332039 13.4645362,15.6876 15.1090217,14.046478 C18.626163,10.5361854 22.1623877,7.04496585 25.6869964,3.54130732 C26.3208949,2.91189268 26.9531341,2.28081951 27.5862029,1.64974634 C32.4499638,6.51755122 37.2506667,11.4492098 42.1550833,16.2788683 C43.2801703,17.3859415 44.4102355,18.488039 45.5560652,19.5743805 C43.6585181,20.2643317 41.5203551,20.120039 39.4917138,20.018039 C35.6401993,16.172722 31.7256268,12.3904293 27.8757717,8.54428293 C27.7197862,8.38838049 27.454279,8.38755122 27.2974638,8.54428293 C22.2885036,13.5480878 17.1841268,18.4548683 12.1552536,23.4379415 C10.9853623,24.5980878 9.80468478,25.7325268 8.85217754,27.0858927 C7.85569565,28.5006244 7.08738406,30.0704293 6.52069203,31.7040878 C5.33420652,35.1256488 4.99983333,38.900478 5.496,42.4829171 C6.0361413,46.3879415 7.63748188,50.0475024 10.056087,53.1473073 C9.05462681,54.4094537 8.18675,55.7736 7.44332971,57.2040878 C6.11330435,55.6973073 4.94673188,54.0379415 3.98094928,52.2483805 C-0.763333333,43.4606244 -0.123626812,32.4462829 5.57399275,24.2448195 L5.57399275,24.2448195 Z M47.8585109,19.2302341 C49.3080145,18.1306244 50.233971,16.5243317 50.0008225,14.6734049 C49.9253188,14.080478 49.75025,13.4676488 49.483913,12.908722 C49.7295072,12.9808683 49.9717826,13.0662829 50.2065906,13.1674537 C51.3839493,13.6716488 52.4053225,14.5141854 53.1031087,15.5897463 C53.6772681,16.4778927 54.0290652,17.4721854 54.2207283,18.5046244 C54.126971,20.6839415 53.6324638,22.9130146 52.1530906,24.5931122 C50.7417536,26.1960878 48.7902754,27.2136 46.7491884,27.770039 C44.3579638,28.4226732 41.8132428,28.3148683 39.356471,28.3588195 C38.102779,28.3812098 36.8482572,28.382039 35.5945652,28.3422341 C34.3508297,28.3032585 33.0407174,28.3007707 31.8185543,28.0519902 C29.7368116,27.6290634 28.3238152,26.1139902 27.8873877,24.064039 C28.0043768,23.6394537 28.1769565,23.2356 28.4150833,22.8732098 C29.045663,21.9145756 30.0993949,21.3813561 31.1871449,21.1176488 C32.440837,20.8141366 33.7791594,20.8083317 35.0577428,20.7743317 C35.4327717,20.7643805 35.806971,20.7602341 36.1811703,20.7602341 C36.2168478,20.766039 36.2516957,20.7652098 36.2857138,20.7594049 C37.6953913,20.7602341 39.1034094,20.8166244 40.513087,20.8655512 C43.1275036,20.9567707 45.6888188,20.8730146 47.8585109,19.2302341 L47.8585109,19.2302341 Z M26.8369746,33.7565268 C26.793,33.7482341 26.7465362,33.7482341 26.7025616,33.7565268 L16.010087,33.7565268 L12.5925109,33.7565268 C12.5842138,33.7440878 12.5742572,33.732478 12.5643007,33.7208683 C12.6812899,29.8050634 14.0760326,25.964722 16.811587,23.1054049 C19.6317717,20.1590146 23.5687464,18.6107707 27.6276884,18.6032717 C30.0587391,18.599161 32.4723659,18.9565756 34.6628007,19.9674537 C33.9683333,19.9906732 33.2738659,20.0288195 32.5818877,20.0868683 C31.6426558,20.1656488 30.7133804,20.3290146 29.8438442,20.7079902 C27.0120435,21.9419415 26.3067899,25.3336488 27.3074203,28.0677463 C28.192721,30.486722 30.5632029,31.689161 33.0382283,31.714039 C35.7024275,31.7306244 38.3666268,31.748039 41.0308261,31.7646244 C41.5328007,31.7671122 42.0314565,31.7778927 42.5292826,31.7828683 C42.6238696,32.1635024 42.7002029,32.5507707 42.7591123,32.938039 C42.7997681,33.2092098 42.8080652,33.4836976 42.8238297,33.7565268 L32.7445109,33.7565268 L26.8369746,33.7565268 Z M11.9884819,42.764039 C11.5089094,40.380722 11.5678188,37.9352098 12.1610616,35.5767707 C12.460587,36.7601366 12.6016377,37.9816488 12.569279,39.2056488 C12.53775,40.4321366 12.2821993,41.5856488 11.9884819,42.764039 L11.9884819,42.764039 Z M27.5837138,17.3046732 C27.7255942,17.446478 27.8674746,17.5882829 28.0093551,17.7300878 C27.7197862,17.7300878 27.4302174,17.736722 27.1414783,17.7499902 C27.2891667,17.6015512 27.4360254,17.4531122 27.5837138,17.3046732 L27.5837138,17.3046732 Z M10.585442,52.5071122 C6.23859058,46.8738927 4.99319565,39.3258927 7.10646739,32.5358439 C7.6225471,30.8773073 8.35684058,29.2884293 9.32096377,27.8438439 C10.2452609,26.4589659 11.4176413,25.3212098 12.5933406,24.1552585 C15.0044783,21.7636488 17.4330399,19.3894537 19.859942,17.0144293 C22.4428297,14.4868195 25.0282065,11.9608683 27.5870326,9.40838049 C31.1340435,12.946039 34.7300072,16.4347707 38.2819964,19.9691122 C37.6364819,19.9508683 36.9917971,19.9400878 36.3462826,19.9400878 C34.2520942,18.6572098 31.7521775,17.9456976 29.2082862,17.7732098 C28.7627319,17.3278927 28.3171775,16.8825756 27.8716232,16.4372585 C27.7156377,16.2813561 27.4501304,16.2805268 27.2933152,16.4372585 C26.8253587,16.9082829 26.3574022,17.3801366 25.8886159,17.851161 C24.5577609,18.0045756 23.2592645,18.3031122 22.047058,18.7467707 C18.1407826,20.1731122 14.9605036,23.1609659 13.2579384,26.950722 C12.2490109,29.198039 11.7628007,31.6269659 11.7395688,34.0857463 C11.7379094,34.0965268 11.7370797,34.1081366 11.7370797,34.1197463 C10.6095036,37.4699902 10.5547428,41.0872585 11.5727971,44.4748195 C11.3786449,45.2941366 11.1869819,46.1151122 10.992,46.9336 C10.9306014,47.1906732 11.1131377,47.4510634 11.3861123,47.4510634 L13.6727935,47.4510634 L13.7001739,49.5474537 C12.8771014,50.176039 12.1004928,50.8659902 11.3769855,51.6256 C11.1040109,51.9116976 10.8418225,52.2069171 10.585442,52.5071122 L10.585442,52.5071122 Z M26.9564529,40.5747707 C26.2653043,42.6263805 24.4548768,43.9440878 22.5963261,44.881161 C20.6697391,45.8530634 18.6419275,46.6043805 16.7311051,47.6119415 C15.9594746,48.0182829 15.2193732,48.4660878 14.509971,48.9561854 C14.5016739,48.318478 14.4933768,47.6807707 14.4850797,47.0430634 C14.4825906,46.8216488 14.3000543,46.6342341 14.0768623,46.6342341 L11.902192,46.6342341 C12.0614964,45.9558927 12.2191413,45.2775512 12.3809348,44.5992098 C12.391721,44.5710146 12.3991884,44.5395024 12.4025072,44.5063317 C12.5194964,44.0154049 12.6373152,43.5253073 12.7626014,43.0368683 C13.4869384,40.2007707 13.6147138,37.3679902 12.7260942,34.5741854 L22.6934022,34.5741854 L26.4685833,34.5741854 C27.30825,36.4193073 27.6110942,38.6317951 26.9564529,40.5747707 L26.9564529,40.5747707 Z M10.1158261,59.8436488 C11.8548986,55.2561366 15.3529565,51.8636 19.771163,49.8236 C21.9607681,48.8118927 24.2582355,47.9676976 26.2487101,46.5778439 C28.1371304,45.2576488 29.5899529,43.4888195 30.3524565,41.3012098 C31.1149601,39.1136 31.1083225,36.724478 30.2752935,34.5741854 L31.9322246,34.5741854 C32.8233333,37.188039 32.9029855,40.2297951 31.8401268,42.8063317 C30.8751739,45.1456976 28.9328225,46.9336 26.8286775,48.2587707 C24.8788587,49.4852585 22.722442,50.358478 20.7012681,51.4589171 C18.7555978,52.518722 16.8597101,53.7253073 15.2583696,55.2685756 C13.5790362,56.8856488 12.3419384,58.8543317 11.653279,61.0693073 C11.126413,60.6795512 10.6136522,60.270722 10.1158261,59.8436488 L10.1158261,59.8436488 Z M12.3568732,61.5726732 C13.6985145,56.9329171 17.5010761,54.0760878 21.620587,51.8926244 C25.7641594,49.6958927 30.5283551,47.8864293 32.5296159,43.2582829 C33.6936993,40.5656488 33.6862319,37.3538927 32.7918043,34.5741854 L34.2023116,34.5741854 C36.4798659,39.4817951 34.7698333,45.2758927 30.883471,48.8525268 C27.2003877,52.2409171 22.0288043,53.3032098 18.242837,56.5456488 C16.3245471,58.1884293 14.8949565,60.2914537 14.0594384,62.663161 C13.4786413,62.3206732 12.9102899,61.9574537 12.3568732,61.5726732 L12.3568732,61.5726732 Z M14.7821159,63.0736488 C15.5794674,60.7201854 16.9941232,58.6636 18.8999674,57.056478 C20.8970797,55.3714049 23.3331087,54.2958439 25.653808,53.1398439 C27.906471,52.0186732 30.1383913,50.7855512 31.925587,48.982722 C33.7219094,47.1699415 35.0602319,44.8546244 35.6816848,42.3776 C36.3379855,39.7587707 36.1347065,37.0462341 35.0917609,34.5741854 L36.8806159,34.5741854 C39.2187391,39.6658927 37.575913,45.7494049 33.7957536,49.6925756 C32.0293007,51.5352098 29.8828406,52.9540878 27.6857681,54.2286732 C25.5384783,55.4750634 23.2128007,56.4992098 21.208221,57.9761366 C19.1264783,59.5111122 17.4048297,61.5088195 16.5444203,63.958478 C15.9461993,63.6848195 15.3587645,63.3896 14.7821159,63.0736488 L14.7821159,63.0736488 Z M17.2969674,64.2885268 C18.1374638,61.8322341 19.9238297,59.8436488 22.0453986,58.3799902 C24.153692,56.9254537 26.5374493,55.8739415 28.7345217,54.5595512 C30.9365725,53.2418439 33.0805435,51.7408683 34.7947246,49.814478 C36.5379457,47.8557463 37.8015942,45.4558439 38.4064529,42.9025268 C39.0685616,40.108722 38.8735797,37.2129171 37.7675761,34.5741854 L39.4269964,34.5741854 L39.8443406,34.5741854 C41.4921449,39.6401854 40.2484094,45.2269659 37.15525,49.5035024 C35.475087,51.8271122 33.2323804,53.6763805 30.8511123,55.2436976 C28.5959601,56.7280878 26.1607609,57.9122829 23.9006304,59.3834049 C21.7699348,60.7682829 19.9130435,62.5255024 19.1007572,64.9710146 C18.4909203,64.7645268 17.8885507,64.5373073 17.2969674,64.2885268 L17.2969674,64.2885268 Z M28.447442,60.1745268 C26.0404529,61.4499415 22.49925,62.7892098 21.7251304,65.7123805 C21.1028478,65.5714049 20.4872029,65.4063805 19.8798551,65.2214537 C20.6813551,62.802478 22.607942,61.1480878 24.7253623,59.8262341 C27.0352754,58.3833073 29.4746232,57.1676 31.7330942,55.6351122 C36.3404746,52.5087707 39.9115471,48.1907707 41.0573768,42.640478 C41.6157717,39.9345756 41.5186957,37.2013073 40.7030906,34.5741854 L42.9341812,34.5741854 C42.9980688,34.8362341 43.083529,35.0999415 43.1391196,35.3603317 C43.5116594,37.0943317 43.6394348,38.8888683 43.4461123,40.6543805 C43.1192065,43.6455512 41.8895761,46.7271122 40.4342645,49.3459415 C37.7202826,54.2286732 33.3120326,57.597161 28.447442,60.1745268 L28.447442,60.1745268 Z M38.4296848,64.0621366 C37.7974457,61.442478 36.2525254,59.229161 34.0919601,57.634478 C34.6213152,57.2422341 35.1390543,56.8342341 35.6418587,56.407161 C37.867971,58.1461366 39.4369529,60.4896488 40.1994565,63.2055024 C39.6203188,63.5123317 39.0295652,63.7976 38.4296848,64.0621366 L38.4296848,64.0621366 Z M40.9354094,62.802478 C40.1198043,60.0352098 38.5043587,57.6734537 36.2616522,55.8648195 C36.7387355,55.4344293 37.1983949,54.9866244 37.638971,54.5205756 C39.9629891,56.4403317 41.6340254,58.9239902 42.5890217,61.782478 C42.0505399,62.1432098 41.4979529,62.4815512 40.9354094,62.802478 L40.9354094,62.802478 Z M43.2892971,61.2990146 C42.2770507,58.4106732 40.5612101,55.8697951 38.1890688,53.9210146 C38.612221,53.4433561 39.0146304,52.9491122 39.3971268,52.4391122 C41.8655145,54.4816 43.713279,57.0838439 44.8732138,60.0725268 C44.3596232,60.5004293 43.8310978,60.9109171 43.2892971,61.2990146 L43.2892971,61.2990146 Z M41.3137572,49.4421366 C42.5973188,47.0745756 43.6327971,44.408478 44.1049022,41.7730634 C44.4508913,39.840039 44.4102355,37.868039 44.0808406,35.9366732 C43.9207065,34.9987707 43.7215761,34.0990146 43.6070761,33.1553073 C43.5506558,32.6942341 43.472663,32.2339902 43.3689493,31.7795512 C44.0783514,31.7679415 44.7852645,31.7239902 45.4930072,31.6045756 C46.0613587,31.5092098 46.6297101,31.3790146 47.1905942,31.2181366 C50.1427029,38.2528195 49.0914601,46.4617463 44.477442,52.5261854 C43.5365507,51.4016976 42.4778406,50.3709171 41.3137572,49.4421366 L41.3137572,49.4421366 Z M52.4069819,27.0170634 C50.6961196,29.1524293 48.0651087,30.320039 45.4208225,30.7918927 C44.1156884,31.0249171 42.8246594,30.9585756 41.5029312,30.9502829 C38.681087,30.9328683 35.8600725,30.9146244 33.0382283,30.8972098 C30.8801522,30.8756488 28.7660507,29.8523317 28.0433732,27.698722 C27.8624964,27.1605268 27.7446775,26.5659415 27.7065109,25.9622341 C28.2864783,27.0494049 29.1850543,27.9342341 30.3673913,28.4492098 C31.3912536,28.8953561 32.4814928,28.9791122 33.5841775,29.0578927 C35.0577428,29.1623805 36.5354565,29.1955512 38.0123406,29.1905756 C42.9864529,29.1723317 48.5753804,29.3763317 52.3621775,25.5658439 C53.2391812,24.6835024 53.8515072,23.6568683 54.2713406,22.5497951 C54.0315543,24.1676976 53.4374819,25.7308683 52.4069819,27.0170634 L52.4069819,27.0170634 Z M52.7123152,27.9101854 C52.7753732,27.8388683 52.8409203,27.7692098 52.9023188,27.6954049 C55.4910145,24.5839902 56.0145616,19.5428683 54.2290254,15.9214537 C53.1976957,13.8283805 51.0263442,12.1292098 48.6558623,11.9028195 C48.3621449,11.8746244 48.1248478,12.2776488 48.3032355,12.5173073 C48.7819783,13.1641366 49.0989275,13.9884293 49.1960036,14.7828683 C49.4225145,16.6412585 48.2293913,18.1098927 46.7110217,19.0262341 C46.5973514,19.0950634 46.4828514,19.1580878 46.3675217,19.2177951 C41.3096087,14.4453561 36.4641014,9.44486829 31.5737899,4.50491707 C30.3425,3.2618439 29.1128696,2.0196 27.8757717,0.783160976 C27.7197862,0.626429268 27.454279,0.626429268 27.2974638,0.783160976 C23.7736848,4.30506341 20.2258442,7.8020878 16.6929384,11.3156976 C14.8634275,13.1351122 13.0364058,14.9570146 11.2185109,16.7896976 C9.61385145,18.4067707 7.93866667,19.993161 6.47173913,21.7379415 C-0.164282609,29.6317463 -1.87099638,40.8484293 2.16139493,50.342722 C4.15933696,55.0446732 7.46241304,59.0798927 11.5603514,62.017161 C11.6059855,62.0685756 11.6640652,62.1083805 11.7287826,62.1340878 C12.4580978,62.6490634 13.2106449,63.1275512 13.9855942,63.5703805 C14.0295688,63.6101854 14.0835,63.640039 14.1415797,63.6591122 C16.6580906,65.0755024 19.3994529,66.1062829 22.2727391,66.666039 C29.5816558,68.0898927 37.1934167,66.4578927 43.2627464,62.323161 C43.3133587,62.3016 43.3606522,62.2709171 43.3979891,62.2319415 C44.1621522,61.7045268 44.9022536,61.1389659 45.6133152,60.5327707 C45.6548007,60.5078927 45.691308,60.4755512 45.7203478,60.4382341 C46.3326739,59.9108195 46.9242572,59.356039 47.4901196,58.7714049 C54.3609493,51.6786732 56.9521341,41.1917463 54.152692,31.7123805 C53.7685362,30.4104293 53.279837,29.1433073 52.7123152,27.9101854 L52.7123152,27.9101854 Z" id="Fill-1" fill="#68B2CB" mask="url(#mask-2)"></path>
                        </g>
                        <path d="M21.5100696,39.3088098 C21.4146529,41.5494927 18.122363,41.5544683 18.0269464,39.3088098 C18.0037145,38.7847122 17.18645,38.7822244 17.2088522,39.3088098 C17.2685913,40.6936878 18.3331094,41.872078 19.7676783,41.8662945 C21.2039065,41.8604683 22.2675949,40.7028098 22.3273341,39.3088098 C22.3497362,38.7830537 21.531642,38.7838829 21.5100696,39.3088098" id="Fill-4" fill="#68B2CB"></path>
                        <path d="M77.9983957,29.7345756 L73.0433667,18.3089171 C72.9886058,18.1994537 72.9703522,18.1074049 72.9703522,17.9788683 C72.9703522,17.6123317 73.3005768,17.2632098 73.7046457,17.2632098 C74.0713775,17.2632098 74.327758,17.502039 74.456363,17.8138439 L78.8969717,28.4508683 L83.3558341,17.7773561 C83.4844391,17.5202829 83.7416493,17.2632098 84.0718739,17.2632098 C84.4759428,17.2632098 84.7879138,17.5932585 84.7879138,17.9606244 C84.7879138,18.0709171 84.7688304,18.1621366 84.7323232,18.2541854 L79.7598703,29.7345756 C79.594758,30.1011122 79.3375478,30.3399415 78.9152254,30.3399415 L78.8422109,30.3399415 C78.4198884,30.3399415 78.1452543,30.1011122 77.9983957,29.7345756" id="Fill-6" fill="#646464"></path>
                        <path d="M106.004349,17.9971951 C106.004349,17.5933415 106.333744,17.2632927 106.719559,17.2632927 C107.123628,17.2632927 107.453853,17.5933415 107.453853,17.9971951 L107.453853,29.5513902 C107.453853,29.9544146 107.123628,30.2844634 106.719559,30.2844634 C106.333744,30.2844634 106.004349,29.9544146 106.004349,29.5513902 L106.004349,17.9971951 Z" id="Fill-8" fill="#646464"></path>
                        <path d="M129.568449,17.9971951 C129.568449,17.5933415 129.898674,17.2632927 130.284489,17.2632927 C130.688558,17.2632927 131.017953,17.5933415 131.017953,17.9971951 L131.017953,25.0210976 L138.339315,17.5203659 C138.505257,17.3735854 138.670369,17.2632927 138.908496,17.2632927 C139.294311,17.2632927 139.606282,17.6124146 139.606282,17.9789512 C139.606282,18.1804634 139.514184,18.3454878 139.368155,18.4922683 L134.816366,23.0034878 L139.69755,29.0198293 C139.825326,29.1848537 139.89917,29.3308049 139.89917,29.5513902 C139.89917,29.9361707 139.569775,30.2844634 139.164876,30.2844634 C138.890242,30.2844634 138.706876,30.1376829 138.578271,29.9544146 L133.789184,23.9944634 L131.017953,26.7633902 L131.017953,29.5513902 C131.017953,29.9544146 130.688558,30.2844634 130.284489,30.2844634 C129.898674,30.2844634 129.568449,29.9544146 129.568449,29.5513902 L129.568449,17.9971951 Z" id="Fill-10" fill="#646464"></path>
                        <path d="M161.153357,17.9971951 C161.153357,17.5933415 161.482752,17.2632927 161.868567,17.2632927 C162.272636,17.2632927 162.602861,17.5933415 162.602861,17.9971951 L162.602861,29.5513902 C162.602861,29.9544146 162.272636,30.2844634 161.868567,30.2844634 C161.482752,30.2844634 161.153357,29.9544146 161.153357,29.5513902 L161.153357,17.9971951 Z" id="Fill-12" fill="#646464"></path>
                        <path d="M184.717457,18.015439 C184.717457,17.6306585 185.046852,17.3006098 185.432667,17.3006098 L185.634287,17.3006098 C185.965341,17.3006098 186.166961,17.4656341 186.36858,17.721878 L194.167855,27.6623171 L194.167855,17.9789512 C194.167855,17.5933415 194.479826,17.2632927 194.883066,17.2632927 C195.268051,17.2632927 195.580852,17.5933415 195.580852,17.9789512 L195.580852,29.5696341 C195.580852,29.9544146 195.305388,30.2479756 194.919573,30.2479756 L194.846558,30.2479756 C194.534587,30.2479756 194.313884,30.0647073 194.094011,29.8076341 L186.130453,19.6291951 L186.130453,29.5696341 C186.130453,29.9544146 185.818482,30.2844634 185.414413,30.2844634 C185.029428,30.2844634 184.717457,29.9544146 184.717457,29.5696341 L184.717457,18.015439 Z" id="Fill-14" fill="#646464"></path>
                        <g id="Group-18" transform="translate(216.554348, 16.748815)">
                            <mask id="mask-4" fill="white">
                                <use xlink:href="#path-3"></use>
                            </mask>
                            <g id="Clip-17"></g>
                            <path d="M0.444807609,7.0618 L0.444807609,7.0253122 C0.444807609,3.50423902 3.03184384,0.386190244 6.88584746,0.386190244 C8.82985833,0.386190244 10.0968257,0.899507317 11.2708656,1.76194634 C11.4368076,1.89048293 11.564583,2.09199512 11.564583,2.34823902 C11.564583,2.75209268 11.2343583,3.08214146 10.8493728,3.08214146 C10.6842605,3.08214146 10.5374018,3.00916585 10.3897134,2.89887317 C9.4728837,2.2022878 8.44570254,1.72545854 6.83025688,1.72545854 C3.98684022,1.72545854 1.9490721,4.12784878 1.9490721,6.98882439 L1.9490721,7.0253122 C1.9490721,10.0878 3.91299601,12.3624829 7.03187645,12.3624829 C8.50046341,12.3624829 9.85869891,11.7936049 10.7390214,11.0787756 L10.7390214,7.88775122 L7.28908659,7.88775122 C6.94060833,7.88775122 6.64772065,7.59419024 6.64772065,7.24589756 C6.64772065,6.87853171 6.94060833,6.5858 7.28908659,6.5858 L11.418554,6.5858 C11.8027098,6.5858 12.1337641,6.91584878 12.1337641,7.31887317 L12.1337641,11.2255561 C12.1337641,11.5738488 11.9686518,11.8856537 11.6375975,12.1054098 C10.4635576,12.9678488 8.88544891,13.6636049 6.97711558,13.6636049 C2.94057572,13.6636049 0.444807609,10.7296537 0.444807609,7.0618" id="Fill-16" fill="#646464" mask="url(#mask-4)"></path>
                        </g>
                        <path d="M74.7516569,48.6899073 C75.5714105,48.6899073 76.1090627,48.2520537 76.1090627,47.6019073 L76.1090627,47.5878098 C76.1090627,46.8812732 75.5788779,46.5139073 74.779867,46.5139073 L73.5286641,46.5139073 L73.5286641,48.6899073 L74.7516569,48.6899073 Z M72.9710989,46.2808829 C72.9710989,46.1258098 73.0980446,45.9989317 73.2465627,45.9989317 L74.8221822,45.9989317 C75.9389721,45.9989317 76.6740953,46.5926878 76.6740953,47.567078 L76.6740953,47.5811756 C76.6740953,48.6476146 75.7829866,49.199078 74.7309141,49.199078 L73.5286641,49.199078 L73.5286641,50.6959073 C73.5286641,50.8518098 73.4017185,50.9786878 73.2465627,50.9786878 C73.0980446,50.9786878 72.9710989,50.8518098 72.9710989,50.6959073 L72.9710989,46.2808829 Z" id="Fill-19" fill="#646464"></path>
                        <path d="M84.6846978,48.8736732 L84.6846978,46.245722 C84.6846978,46.0906488 84.8116435,45.9637707 84.9609913,45.9637707 C85.1169768,45.9637707 85.2439225,46.0906488 85.2439225,46.245722 L85.2439225,48.8388439 C85.2439225,49.9052829 85.8155928,50.5056732 86.7556543,50.5056732 C87.6683355,50.5056732 88.2474732,49.955039 88.2474732,48.8736732 L88.2474732,46.245722 C88.2474732,46.0906488 88.3744188,45.9637707 88.5304043,45.9637707 C88.6780928,45.9637707 88.8058681,46.0906488 88.8058681,46.245722 L88.8058681,48.8313805 C88.8058681,50.2726488 87.9786471,51.021478 86.7415493,51.021478 C85.5193862,51.021478 84.6846978,50.2726488 84.6846978,48.8736732" id="Fill-21" fill="#646464"></path>
                        <path d="M99.2767272,48.5206537 C100.019318,48.5206537 100.548673,48.1391902 100.548673,47.5031415 L100.548673,47.4890439 C100.548673,46.8811902 100.082376,46.5146537 99.2841946,46.5146537 L97.7566982,46.5146537 L97.7566982,48.5206537 L99.2767272,48.5206537 Z M97.1983033,46.2808 C97.1983033,46.1257268 97.3252489,45.9988488 97.473767,45.9988488 L99.3265098,45.9988488 C99.9338576,45.9988488 100.421727,46.1829463 100.732868,46.4930927 C100.972655,46.7335805 101.114535,47.0793854 101.114535,47.4683122 L101.114535,47.4824098 C101.114535,48.2950927 100.563608,48.7677756 99.7928069,48.9162146 L101.022437,50.4984585 C101.078858,50.5623122 101.114535,50.6261659 101.114535,50.7032878 C101.114535,50.8525561 100.972655,50.9786049 100.831604,50.9786049 C100.717934,50.9786049 100.634133,50.9155805 100.570245,50.8309951 L99.1779917,49.022361 L97.7566982,49.022361 L97.7566982,50.6966537 C97.7566982,50.8525561 97.6297525,50.9786049 97.473767,50.9786049 C97.3252489,50.9786049 97.1983033,50.8525561 97.1983033,50.6966537 L97.1983033,46.2808 Z" id="Fill-23" fill="#646464"></path>
                        <path d="M109.379112,50.6614098 L109.379112,46.2812146 C109.379112,46.1253122 109.506887,45.9984341 109.655405,45.9984341 L112.729482,45.9984341 C112.871362,45.9984341 112.984203,46.1120439 112.984203,46.2530195 C112.984203,46.3939951 112.871362,46.5067756 112.729482,46.5067756 L109.938337,46.5067756 L109.938337,48.1951659 L112.411703,48.1951659 C112.552753,48.1951659 112.666424,48.3154098 112.666424,48.4497512 C112.666424,48.5915561 112.552753,48.7043366 112.411703,48.7043366 L109.938337,48.7043366 L109.938337,50.4358488 L112.765159,50.4358488 C112.90621,50.4358488 113.01988,50.5478 113.01988,50.6896049 C113.01988,50.8305805 112.90621,50.943361 112.765159,50.943361 L109.655405,50.943361 C109.506887,50.943361 109.379112,50.8164829 109.379112,50.6614098" id="Fill-25" fill="#646464"></path>
                        <path d="M130.200439,50.3500195 C130.136551,50.3077268 130.094236,50.2297756 130.094236,50.1385561 C130.094236,49.9834829 130.214544,49.8624098 130.362233,49.8624098 C130.432758,49.8624098 130.496646,49.8914341 130.531493,49.9262634 C130.99862,50.3218244 131.464917,50.5125561 132.093838,50.5125561 C132.758436,50.5125561 133.196522,50.1592878 133.196522,49.671678 L133.196522,49.6584098 C133.196522,49.1989951 132.949269,48.9377756 131.911301,48.7188488 C130.772109,48.4708976 130.249392,48.104361 130.249392,47.291678 L130.249392,47.2775805 C130.249392,46.4997268 130.935562,45.9275317 131.875624,45.9275317 C132.525287,45.9275317 132.999051,46.0900683 133.451243,46.4151415 C133.507664,46.4582634 133.571551,46.5353854 133.571551,46.6415317 C133.571551,46.7899707 133.451243,46.9102146 133.302725,46.9102146 C133.239667,46.9102146 133.189885,46.8961171 133.140102,46.8604585 C132.723588,46.5569463 132.320349,46.429239 131.861519,46.429239 C131.218493,46.429239 130.807787,46.7833366 130.807787,47.2278244 L130.807787,47.241922 C130.807787,47.7079707 131.062508,47.9691902 132.151088,48.2030439 C133.253772,48.4427024 133.762385,48.8457268 133.762385,49.6011902 L133.762385,49.6152878 C133.762385,50.4628 133.055472,51.0142634 132.073095,51.0142634 C131.352077,51.0142634 130.751367,50.7878732 130.200439,50.3500195" id="Fill-27" fill="#646464"></path>
                        <path d="M146.219404,48.4854098 C146.219404,49.608239 145.412926,50.5129707 144.282861,50.5129707 C143.151966,50.5129707 142.331382,49.5941415 142.331382,48.4704829 L142.331382,48.4572146 C142.331382,47.3335561 143.137031,46.4296537 144.267926,46.4296537 C145.39965,46.4296537 146.219404,47.3476537 146.219404,48.4704829 L146.219404,48.4854098 Z M144.282861,45.9138488 C142.776937,45.9138488 141.752245,47.1071659 141.752245,48.4704829 L141.752245,48.4854098 C141.752245,49.8487268 142.762832,51.0279463 144.267926,51.0279463 C145.77385,51.0279463 146.798542,49.8346293 146.798542,48.4704829 L146.798542,48.4572146 C146.798542,47.0938976 145.787955,45.9138488 144.282861,45.9138488 L144.282861,45.9138488 Z" id="Fill-29" fill="#646464"></path>
                        <path d="M155.050424,46.2458049 C155.050424,46.0907317 155.17737,45.9638537 155.325888,45.9638537 C155.481873,45.9638537 155.608819,46.0907317 155.608819,46.2458049 L155.608819,50.4278049 L158.174283,50.4278049 C158.316163,50.4278049 158.428174,50.5480488 158.428174,50.6890244 C158.428174,50.8308293 158.316163,50.9436098 158.174283,50.9436098 L155.325888,50.9436098 C155.17737,50.9436098 155.050424,50.8167317 155.050424,50.6616585 L155.050424,46.2458049 Z" id="Fill-31" fill="#646464"></path>
                        <path d="M166.277481,48.8736732 L166.277481,46.245722 C166.277481,46.0906488 166.404426,45.9637707 166.552945,45.9637707 C166.70893,45.9637707 166.835876,46.0906488 166.835876,46.245722 L166.835876,48.8388439 C166.835876,49.9052829 167.408376,50.5056732 168.347608,50.5056732 C169.260289,50.5056732 169.839426,49.955039 169.839426,48.8736732 L169.839426,46.245722 C169.839426,46.0906488 169.966372,45.9637707 170.122358,45.9637707 C170.270046,45.9637707 170.397821,46.0906488 170.397821,46.245722 L170.397821,48.8313805 C170.397821,50.2726488 169.57143,51.021478 168.334332,51.021478 C167.111339,51.021478 166.277481,50.2726488 166.277481,48.8736732" id="Fill-33" fill="#646464"></path>
                        <path d="M180.098129,46.514239 L178.66356,46.514239 C178.522509,46.514239 178.401371,46.4014585 178.401371,46.2596537 C178.401371,46.118678 178.522509,45.9984341 178.66356,45.9984341 L182.09856,45.9984341 C182.239611,45.9984341 182.359918,46.118678 182.359918,46.2596537 C182.359918,46.4014585 182.239611,46.514239 182.09856,46.514239 L180.663991,46.514239 L180.663991,50.696239 C180.663991,50.8521415 180.536216,50.9790195 180.38106,50.9790195 C180.225074,50.9790195 180.098129,50.8521415 180.098129,50.696239 L180.098129,46.514239 Z" id="Fill-35" fill="#646464"></path>
                        <path d="M190.49141,46.2458049 C190.49141,46.0907317 190.617526,45.9638537 190.766874,45.9638537 C190.922029,45.9638537 191.049805,46.0907317 191.049805,46.2458049 L191.049805,50.6964878 C191.049805,50.8523902 190.922029,50.9792683 190.766874,50.9792683 C190.617526,50.9792683 190.49141,50.8523902 190.49141,50.6964878 L190.49141,46.2458049 Z" id="Fill-37" fill="#646464"></path>
                        <path d="M203.81614,48.4854098 L203.81614,48.4704829 C203.81614,47.3476537 202.996386,46.4296537 201.865491,46.4296537 C200.734596,46.4296537 199.928948,47.3335561 199.928948,48.4572146 L199.928948,48.4704829 C199.928948,49.5941415 200.749531,50.5129707 201.879596,50.5129707 C203.010491,50.5129707 203.81614,49.608239 203.81614,48.4854098 M199.34898,48.4854098 L199.34898,48.4704829 C199.34898,47.1071659 200.374502,45.9138488 201.879596,45.9138488 C203.384691,45.9138488 204.396107,47.0938976 204.396107,48.4572146 L204.396107,48.4704829 C204.396107,49.8346293 203.371415,51.0279463 201.865491,51.0279463 C200.360397,51.0279463 199.34898,49.8487268 199.34898,48.4854098" id="Fill-39" fill="#646464"></path>
                        <path d="M212.648072,46.2526878 C212.648072,46.105078 212.775018,45.9773707 212.923536,45.9773707 L213.001529,45.9773707 C213.128475,45.9773707 213.206467,46.0412244 213.28446,46.1399073 L216.288011,49.968639 L216.288011,46.2385902 C216.288011,46.0901512 216.407489,45.9632732 216.563475,45.9632732 C216.711163,45.9632732 216.832301,46.0901512 216.832301,46.2385902 L216.832301,50.7033707 C216.832301,50.8518098 216.726098,50.9654195 216.57758,50.9654195 L216.54937,50.9654195 C216.429891,50.9654195 216.344431,50.8941024 216.259801,50.7954195 L213.191533,46.874639 L213.191533,50.7033707 C213.191533,50.8518098 213.072054,50.9786878 212.916069,50.9786878 C212.76838,50.9786878 212.648072,50.8518098 212.648072,50.7033707 L212.648072,46.2526878 Z" id="Fill-41" fill="#646464"></path>
                        <path d="M225.126083,50.3500195 C225.062196,50.3077268 225.01988,50.2297756 225.01988,50.1385561 C225.01988,49.9834829 225.140188,49.8624098 225.287877,49.8624098 C225.358402,49.8624098 225.42229,49.8914341 225.457967,49.9262634 C225.924264,50.3218244 226.390562,50.5125561 227.019482,50.5125561 C227.684909,50.5125561 228.122167,50.1592878 228.122167,49.671678 L228.122167,49.6584098 C228.122167,49.1989951 227.874913,48.9377756 226.836946,48.7188488 C225.697754,48.4708976 225.175866,48.104361 225.175866,47.291678 L225.175866,47.2775805 C225.175866,46.4997268 225.861207,45.9275317 226.801268,45.9275317 C227.451761,45.9275317 227.924696,46.0900683 228.376888,46.4151415 C228.433308,46.4582634 228.496366,46.5353854 228.496366,46.6415317 C228.496366,46.7899707 228.376888,46.9102146 228.22837,46.9102146 C228.165312,46.9102146 228.115529,46.8961171 228.066576,46.8604585 C227.649232,46.5569463 227.246822,46.429239 226.787163,46.429239 C226.144138,46.429239 225.733431,46.7833366 225.733431,47.2278244 L225.733431,47.241922 C225.733431,47.7079707 225.988152,47.9691902 227.076732,48.2030439 C228.179417,48.4427024 228.688029,48.8457268 228.688029,49.6011902 L228.688029,49.6152878 C228.688029,50.4628 227.981116,51.0142634 226.999569,51.0142634 C226.277721,51.0142634 225.677011,50.7878732 225.126083,50.3500195" id="Fill-43" fill="#646464"></path>
                    </g>
                </g>
            </g>
        </g>
    </g>
</svg>